<svg xmlns="http://www.w3.org/2000/svg" width="960" height="190" viewBox="0 0 960 190" role="img" aria-labelledby="title desc"><title id="title">Lösung Höraufgabe 2: ein Takt</title><desc id="desc">Takt 1: Halbenote; Achteltriole, Akzent auf Position 1; Viertelnote</desc><rect width="960" height="190" fill="white"/><path d="M24 135H936" stroke="black" stroke-width="1"/><text x="55" y="134" font-family="Georgia,serif" font-size="23" font-weight="bold">4</text><text x="55" y="154" font-family="Georgia,serif" font-size="23" font-weight="bold">4</text><path d="M116 116v38" stroke="black" stroke-width="1.5"/><text x="136.0" y="39" text-anchor="middle" font-family="Arial,sans-serif" font-size="19">1</text><path data-smufl="E1D3" data-bar="1" data-onset="0" data-duration="12" fill="black" transform="translate(130.0 155.8) scale(0.52 -0.52)" d="M9.0 28.4 C24.2 28.4 27.3 40.7 27.3 43.8 L27.3 110.0 L24.9 110.0 L24.9 49.4 C23.3 50.8 21.0 51.6 18.2 51.6 C4.3 51.6 0.0 40.9 0.0 36.1 C0.0 31.2 3.9 28.4 9.0 28.4 Z M11.1 44.2 C15.7 46.8 18.6 47.8 20.5 47.8 C22.2 47.8 23.2 47.0 23.8 45.8 C24.2 45.3 24.4 44.7 24.4 44.1 C24.4 42.2 22.5 40.0 16.0 35.8 C11.8 33.0 9.0 32.0 7.0 32.0 C5.0 32.0 3.9 33.0 3.3 34.1 C3.0 34.6 2.7 35.3 2.7 35.9 C2.7 37.9 4.7 40.5 11.1 44.2 Z"/><text x="520.0" y="39" text-anchor="middle" font-family="Arial,sans-serif" font-size="19">3</text><path data-smufl="E0A4" data-bar="1" data-onset="12" data-duration="2" data-tuplet="3:2" fill="black" transform="translate(514.0 155.8) scale(0.52 -0.52)" d="M7.8 30.0 C14.9 30.0 23.6 36.6 23.6 43.4 C23.6 47.4 20.4 50.0 15.8 50.0 C7.0 50.0 0.0 43.5 0.0 36.6 C0.0 32.5 3.4 30.0 7.8 30.0 Z"/><path d="M525.3 135V97" stroke="black" stroke-width="1.5"/><path data-accent="1" d="M514.0 78L526.0 82L514.0 86" fill="none" stroke="black" stroke-width="1.6"/><text x="584.0" y="39" text-anchor="middle" font-family="Arial,sans-serif" font-size="19">tri</text><path data-smufl="E0A4" data-bar="1" data-onset="14" data-duration="2" data-tuplet="3:2" fill="black" transform="translate(578.0 155.8) scale(0.52 -0.52)" d="M7.8 30.0 C14.9 30.0 23.6 36.6 23.6 43.4 C23.6 47.4 20.4 50.0 15.8 50.0 C7.0 50.0 0.0 43.5 0.0 36.6 C0.0 32.5 3.4 30.0 7.8 30.0 Z"/><path d="M589.3 135V97" stroke="black" stroke-width="1.5"/><text x="648.0" y="39" text-anchor="middle" font-family="Arial,sans-serif" font-size="19">ol</text><path data-smufl="E0A4" data-bar="1" data-onset="16" data-duration="2" data-tuplet="3:2" fill="black" transform="translate(642.0 155.8) scale(0.52 -0.52)" d="M7.8 30.0 C14.9 30.0 23.6 36.6 23.6 43.4 C23.6 47.4 20.4 50.0 15.8 50.0 C7.0 50.0 0.0 43.5 0.0 36.6 C0.0 32.5 3.4 30.0 7.8 30.0 Z"/><path d="M653.3 135V97" stroke="black" stroke-width="1.5"/><path data-beam="1" d="M524.6 97H654.0" stroke="black" stroke-width="4.5"/><path data-tuplet-bracket="3" d="M511.0 67v-7H576.0M596.0 60H661.0v7" fill="none" stroke="black" stroke-width="1.3"/><text data-tuplet-number="3" x="586.0" y="65" text-anchor="middle" font-family="Georgia,serif" font-style="italic" font-size="17">3</text><text x="712.0" y="39" text-anchor="middle" font-family="Arial,sans-serif" font-size="19">4</text><path data-smufl="E1D5" data-bar="1" data-onset="18" data-duration="6" fill="black" transform="translate(706.0 155.8) scale(0.52 -0.52)" d="M24.2 49.2 C22.6 50.6 20.4 51.3 17.8 51.3 C7.9 51.3 0.0 44.0 0.0 36.2 C0.0 31.5 3.8 28.7 8.7 28.7 C16.7 28.7 26.6 36.2 26.6 43.8 L26.6 110.0 L24.2 110.0 Z"/><path d="M930 116v38" stroke="black" stroke-width="1.5"/><path d="M936 116v38" stroke="black" stroke-width="4"/></svg>