<svg xmlns="http://www.w3.org/2000/svg" width="960" height="145" viewBox="0 0 960 145" role="img" aria-labelledby="title desc"><title id="title">Lösung zur gemischten Höraufgabe 2: ein Takt im 4/4-Takt</title><desc id="desc">Takt 1: Sechzehntelnote, Sechzehntelnote, Achtelnote, halbe Note, Achtelnote, Sechzehntelnote, Sechzehntelnote</desc><rect width="960" height="145" fill="white"/><path d="M24 100H936" stroke="black" stroke-width="1"/><text x="55" y="99" font-family="Georgia,serif" font-size="23" font-weight="bold">4</text><text x="55" y="119" font-family="Georgia,serif" font-size="23" font-weight="bold">4</text><text x="136.0" y="32" text-anchor="middle" font-family="Arial,sans-serif" font-size="22">1</text><text x="184.75" y="32" text-anchor="middle" font-family="Arial,sans-serif" font-size="22">e</text><text x="233.5" y="32" text-anchor="middle" font-family="Arial,sans-serif" font-size="22">&amp;</text><text x="282.25" y="32" text-anchor="middle" font-family="Arial,sans-serif" font-size="22">e</text><text x="331.0" y="32" text-anchor="middle" font-family="Arial,sans-serif" font-size="22">2</text><text x="379.75" y="32" text-anchor="middle" font-family="Arial,sans-serif" font-size="22">e</text><text x="428.5" y="32" text-anchor="middle" font-family="Arial,sans-serif" font-size="22">&amp;</text><text x="477.25" y="32" text-anchor="middle" font-family="Arial,sans-serif" font-size="22">e</text><text x="526.0" y="32" text-anchor="middle" font-family="Arial,sans-serif" font-size="22">3</text><text x="574.75" y="32" text-anchor="middle" font-family="Arial,sans-serif" font-size="22">e</text><text x="623.5" y="32" text-anchor="middle" font-family="Arial,sans-serif" font-size="22">&amp;</text><text x="672.25" y="32" text-anchor="middle" font-family="Arial,sans-serif" font-size="22">e</text><text x="721.0" y="32" text-anchor="middle" font-family="Arial,sans-serif" font-size="22">4</text><text x="769.75" y="32" text-anchor="middle" font-family="Arial,sans-serif" font-size="22">e</text><text x="818.5" y="32" text-anchor="middle" font-family="Arial,sans-serif" font-size="22">&amp;</text><text x="867.25" y="32" text-anchor="middle" font-family="Arial,sans-serif" font-size="22">e</text><path d="M116 81v38" stroke="black" stroke-width="1.5"/><path data-smufl="E0A4" data-bar="1" data-onset="0.0" data-duration="0.25" fill="black" transform="translate(130.0 120.8) scale(0.52 -0.52)" d="M7.8 30.0 C14.9 30.0 23.6 36.6 23.6 43.4 C23.6 47.4 20.4 50.0 15.8 50.0 C7.0 50.0 0.0 43.5 0.0 36.6 C0.0 32.5 3.4 30.0 7.8 30.0 Z"/><path d="M141.3 100V62" stroke="black" stroke-width="1.5"/><path data-smufl="E0A4" data-bar="1" data-onset="0.25" data-duration="0.25" fill="black" transform="translate(178.75 120.8) scale(0.52 -0.52)" d="M7.8 30.0 C14.9 30.0 23.6 36.6 23.6 43.4 C23.6 47.4 20.4 50.0 15.8 50.0 C7.0 50.0 0.0 43.5 0.0 36.6 C0.0 32.5 3.4 30.0 7.8 30.0 Z"/><path d="M190.05 100V62" stroke="black" stroke-width="1.5"/><path data-smufl="E0A4" data-bar="1" data-onset="0.5" data-duration="0.5" fill="black" transform="translate(227.5 120.8) scale(0.52 -0.52)" d="M7.8 30.0 C14.9 30.0 23.6 36.6 23.6 43.4 C23.6 47.4 20.4 50.0 15.8 50.0 C7.0 50.0 0.0 43.5 0.0 36.6 C0.0 32.5 3.4 30.0 7.8 30.0 Z"/><path d="M238.8 100V62" stroke="black" stroke-width="1.5"/><path data-beam-level="1" d="M140.60000000000002 62H239.5" stroke="black" stroke-width="4.5"/><path data-beam-level="2" d="M140.60000000000002 71H190.75" stroke="black" stroke-width="4.5"/><path data-smufl="E1D3" data-bar="1" data-onset="1.0" data-duration="2.0" fill="black" transform="translate(325.0 120.8) scale(0.52 -0.52)" d="M9.0 28.4 C24.2 28.4 27.3 40.7 27.3 43.8 L27.3 110.0 L24.9 110.0 L24.9 49.4 C23.3 50.8 21.0 51.6 18.2 51.6 C4.3 51.6 0.0 40.9 0.0 36.1 C0.0 31.2 3.9 28.4 9.0 28.4 Z M11.1 44.2 C15.7 46.8 18.6 47.8 20.5 47.8 C22.2 47.8 23.2 47.0 23.8 45.8 C24.2 45.3 24.4 44.7 24.4 44.1 C24.4 42.2 22.5 40.0 16.0 35.8 C11.8 33.0 9.0 32.0 7.0 32.0 C5.0 32.0 3.9 33.0 3.3 34.1 C3.0 34.6 2.7 35.3 2.7 35.9 C2.7 37.9 4.7 40.5 11.1 44.2 Z"/><path data-smufl="E0A4" data-bar="1" data-onset="3.0" data-duration="0.5" fill="black" transform="translate(715.0 120.8) scale(0.52 -0.52)" d="M7.8 30.0 C14.9 30.0 23.6 36.6 23.6 43.4 C23.6 47.4 20.4 50.0 15.8 50.0 C7.0 50.0 0.0 43.5 0.0 36.6 C0.0 32.5 3.4 30.0 7.8 30.0 Z"/><path d="M726.3 100V62" stroke="black" stroke-width="1.5"/><path data-smufl="E0A4" data-bar="1" data-onset="3.5" data-duration="0.25" fill="black" transform="translate(812.5 120.8) scale(0.52 -0.52)" d="M7.8 30.0 C14.9 30.0 23.6 36.6 23.6 43.4 C23.6 47.4 20.4 50.0 15.8 50.0 C7.0 50.0 0.0 43.5 0.0 36.6 C0.0 32.5 3.4 30.0 7.8 30.0 Z"/><path d="M823.8 100V62" stroke="black" stroke-width="1.5"/><path data-smufl="E0A4" data-bar="1" data-onset="3.75" data-duration="0.25" fill="black" transform="translate(861.25 120.8) scale(0.52 -0.52)" d="M7.8 30.0 C14.9 30.0 23.6 36.6 23.6 43.4 C23.6 47.4 20.4 50.0 15.8 50.0 C7.0 50.0 0.0 43.5 0.0 36.6 C0.0 32.5 3.4 30.0 7.8 30.0 Z"/><path d="M872.55 100V62" stroke="black" stroke-width="1.5"/><path data-beam-level="1" d="M725.5999999999999 62H873.25" stroke="black" stroke-width="4.5"/><path data-beam-level="2" d="M823.0999999999999 71H873.25" stroke="black" stroke-width="4.5"/><path d="M930 81v38" stroke="black" stroke-width="1.5"/><path d="M936 81v38" stroke="black" stroke-width="4"/></svg>