<svg xmlns="http://www.w3.org/2000/svg" width="960" height="135" viewBox="0 0 960 135" role="img" aria-labelledby="title"><title id="title">Rhythmus im 4/4-Takt, 2 Takte</title><path fill="white" d="M0 0H960V135H0Z"/><path d="M18 80H940" stroke="black" stroke-width="1"/><path d="M29 69v22M38 69v22" stroke="black" stroke-width="5"/><text x="51" y="79" font-family="Georgia,serif" font-weight="bold" font-size="23">4</text><text x="51" y="99" font-family="Georgia,serif" font-weight="bold" font-size="23">4</text><path data-smufl="E0A4" fill="black" transform="translate(96.0 100.8) scale(0.52 -0.52)" d="M7.8 30.0 C14.9 30.0 23.6 36.6 23.6 43.4 C23.6 47.4 20.4 50.0 15.8 50.0 C7.0 50.0 0.0 43.5 0.0 36.6 C0.0 32.5 3.4 30.0 7.8 30.0 Z"/><path d="M107.3 80V42" stroke="black" stroke-width="1.5"/><path data-smufl="E0A4" fill="black" transform="translate(146.125 100.8) scale(0.52 -0.52)" d="M7.8 30.0 C14.9 30.0 23.6 36.6 23.6 43.4 C23.6 47.4 20.4 50.0 15.8 50.0 C7.0 50.0 0.0 43.5 0.0 36.6 C0.0 32.5 3.4 30.0 7.8 30.0 Z"/><path d="M157.425 80V42" stroke="black" stroke-width="1.5"/><path data-beam="2" d="M106.6 42H158.125" stroke="black" stroke-width="4.5"/><path data-smufl="E1D5" fill="black" transform="translate(196.25 100.8) scale(0.52 -0.52)" d="M24.2 49.2 C22.6 50.6 20.4 51.3 17.8 51.3 C7.9 51.3 0.0 44.0 0.0 36.2 C0.0 31.5 3.8 28.7 8.7 28.7 C16.7 28.7 26.6 36.2 26.6 43.8 L26.6 110.0 L24.2 110.0 Z"/><path data-smufl="E4E6" fill="black" transform="translate(296.5 100.8) scale(0.52 -0.52)" d="M10.7 48.6 C10.7 51.5 8.3 53.9 5.4 53.9 C2.4 53.9 0.0 51.5 0.0 48.6 C0.0 46.9 1.0 45.4 2.2 44.5 C2.9 44.0 3.6 43.6 4.4 43.4 C5.0 43.3 5.8 43.1 6.5 43.1 C7.6 43.1 8.7 43.4 9.6 43.7 C10.7 44.0 11.4 44.3 12.5 44.9 C12.6 45.0 12.8 45.0 12.9 45.0 C13.2 45.0 13.3 44.6 13.3 44.2 C13.3 44.0 13.3 43.7 13.2 43.4 C13.0 42.2 7.2 26.2 5.8 21.0 C5.8 20.0 7.6 19.9 8.1 19.9 C9.0 19.9 10.1 20.1 10.9 20.7 C11.1 20.9 19.0 49.0 19.0 49.0 C19.3 50.4 19.7 51.7 19.8 52.1 C19.8 52.9 19.0 53.3 18.8 53.4 C18.6 53.4 18.4 53.4 17.9 53.0 C17.4 52.6 13.4 47.8 10.7 47.8 Z"/><path data-smufl="E0A4" fill="black" transform="translate(346.625 100.8) scale(0.52 -0.52)" d="M7.8 30.0 C14.9 30.0 23.6 36.6 23.6 43.4 C23.6 47.4 20.4 50.0 15.8 50.0 C7.0 50.0 0.0 43.5 0.0 36.6 C0.0 32.5 3.4 30.0 7.8 30.0 Z"/><path d="M357.925 80V42" stroke="black" stroke-width="1.5"/><path data-smufl="E0A4" fill="black" transform="translate(396.75 100.8) scale(0.52 -0.52)" d="M7.8 30.0 C14.9 30.0 23.6 36.6 23.6 43.4 C23.6 47.4 20.4 50.0 15.8 50.0 C7.0 50.0 0.0 43.5 0.0 36.6 C0.0 32.5 3.4 30.0 7.8 30.0 Z"/><path d="M408.05 80V42" stroke="black" stroke-width="1.5"/><path data-beam="2" d="M357.225 42H408.75" stroke="black" stroke-width="4.5"/><path data-smufl="E4E6" fill="black" transform="translate(446.875 100.8) scale(0.52 -0.52)" d="M10.7 48.6 C10.7 51.5 8.3 53.9 5.4 53.9 C2.4 53.9 0.0 51.5 0.0 48.6 C0.0 46.9 1.0 45.4 2.2 44.5 C2.9 44.0 3.6 43.6 4.4 43.4 C5.0 43.3 5.8 43.1 6.5 43.1 C7.6 43.1 8.7 43.4 9.6 43.7 C10.7 44.0 11.4 44.3 12.5 44.9 C12.6 45.0 12.8 45.0 12.9 45.0 C13.2 45.0 13.3 44.6 13.3 44.2 C13.3 44.0 13.3 43.7 13.2 43.4 C13.0 42.2 7.2 26.2 5.8 21.0 C5.8 20.0 7.6 19.9 8.1 19.9 C9.0 19.9 10.1 20.1 10.9 20.7 C11.1 20.9 19.0 49.0 19.0 49.0 C19.3 50.4 19.7 51.7 19.8 52.1 C19.8 52.9 19.0 53.3 18.8 53.4 C18.6 53.4 18.4 53.4 17.9 53.0 C17.4 52.6 13.4 47.8 10.7 47.8 Z"/><path d="M513.0 61v38" stroke="black" stroke-width="1.5"/><path data-smufl="E0A4" fill="black" transform="translate(523.0 100.8) scale(0.52 -0.52)" d="M7.8 30.0 C14.9 30.0 23.6 36.6 23.6 43.4 C23.6 47.4 20.4 50.0 15.8 50.0 C7.0 50.0 0.0 43.5 0.0 36.6 C0.0 32.5 3.4 30.0 7.8 30.0 Z"/><path d="M534.3 80V42" stroke="black" stroke-width="1.5"/><path data-smufl="E0A4" fill="black" transform="translate(573.125 100.8) scale(0.52 -0.52)" d="M7.8 30.0 C14.9 30.0 23.6 36.6 23.6 43.4 C23.6 47.4 20.4 50.0 15.8 50.0 C7.0 50.0 0.0 43.5 0.0 36.6 C0.0 32.5 3.4 30.0 7.8 30.0 Z"/><path d="M584.425 80V42" stroke="black" stroke-width="1.5"/><path data-smufl="E0A4" fill="black" transform="translate(623.25 100.8) scale(0.52 -0.52)" d="M7.8 30.0 C14.9 30.0 23.6 36.6 23.6 43.4 C23.6 47.4 20.4 50.0 15.8 50.0 C7.0 50.0 0.0 43.5 0.0 36.6 C0.0 32.5 3.4 30.0 7.8 30.0 Z"/><path d="M634.55 80V42" stroke="black" stroke-width="1.5"/><path data-smufl="E0A4" fill="black" transform="translate(673.375 100.8) scale(0.52 -0.52)" d="M7.8 30.0 C14.9 30.0 23.6 36.6 23.6 43.4 C23.6 47.4 20.4 50.0 15.8 50.0 C7.0 50.0 0.0 43.5 0.0 36.6 C0.0 32.5 3.4 30.0 7.8 30.0 Z"/><path d="M684.675 80V42" stroke="black" stroke-width="1.5"/><path data-beam="4" d="M533.5999999999999 42H685.375" stroke="black" stroke-width="4.5"/><path data-smufl="E4E6" fill="black" transform="translate(723.5 100.8) scale(0.52 -0.52)" d="M10.7 48.6 C10.7 51.5 8.3 53.9 5.4 53.9 C2.4 53.9 0.0 51.5 0.0 48.6 C0.0 46.9 1.0 45.4 2.2 44.5 C2.9 44.0 3.6 43.6 4.4 43.4 C5.0 43.3 5.8 43.1 6.5 43.1 C7.6 43.1 8.7 43.4 9.6 43.7 C10.7 44.0 11.4 44.3 12.5 44.9 C12.6 45.0 12.8 45.0 12.9 45.0 C13.2 45.0 13.3 44.6 13.3 44.2 C13.3 44.0 13.3 43.7 13.2 43.4 C13.0 42.2 7.2 26.2 5.8 21.0 C5.8 20.0 7.6 19.9 8.1 19.9 C9.0 19.9 10.1 20.1 10.9 20.7 C11.1 20.9 19.0 49.0 19.0 49.0 C19.3 50.4 19.7 51.7 19.8 52.1 C19.8 52.9 19.0 53.3 18.8 53.4 C18.6 53.4 18.4 53.4 17.9 53.0 C17.4 52.6 13.4 47.8 10.7 47.8 Z"/><path data-smufl="E0A4" fill="black" transform="translate(773.625 100.8) scale(0.52 -0.52)" d="M7.8 30.0 C14.9 30.0 23.6 36.6 23.6 43.4 C23.6 47.4 20.4 50.0 15.8 50.0 C7.0 50.0 0.0 43.5 0.0 36.6 C0.0 32.5 3.4 30.0 7.8 30.0 Z"/><path d="M784.925 80V42" stroke="black" stroke-width="1.5"/><path data-smufl="E0A4" fill="black" transform="translate(823.75 100.8) scale(0.52 -0.52)" d="M7.8 30.0 C14.9 30.0 23.6 36.6 23.6 43.4 C23.6 47.4 20.4 50.0 15.8 50.0 C7.0 50.0 0.0 43.5 0.0 36.6 C0.0 32.5 3.4 30.0 7.8 30.0 Z"/><path d="M835.05 80V42" stroke="black" stroke-width="1.5"/><path data-smufl="E0A4" fill="black" transform="translate(873.875 100.8) scale(0.52 -0.52)" d="M7.8 30.0 C14.9 30.0 23.6 36.6 23.6 43.4 C23.6 47.4 20.4 50.0 15.8 50.0 C7.0 50.0 0.0 43.5 0.0 36.6 C0.0 32.5 3.4 30.0 7.8 30.0 Z"/><path d="M885.175 80V42" stroke="black" stroke-width="1.5"/><path data-beam="3" d="M784.2249999999999 42H885.875" stroke="black" stroke-width="4.5"/><path d="M934.0 61v38" stroke="black" stroke-width="1.5"/><path d="M940.0 61v38" stroke="black" stroke-width="4"/></svg>